<?xml version="1.0" ?><svg height="60px" version="1.1" viewBox="0 0 60 60" width="60px" xmlns="http://www.w3.org/2000/svg" xmlns:sketch="http://www.bohemiancoding.com/sketch/ns" xmlns:xlink="http://www.w3.org/1999/xlink"><title/><desc/><defs/><g fill="none" fill-rule="evenodd" id="soical" stroke="none" stroke-width="1"><g id="social" transform="translate(-573.000000, -538.000000)"><g id="slices" transform="translate(173.000000, 138.000000)"/><g fill="#000000" id="square-black" transform="translate(173.000000, 138.000000)"><path d="M402.995937,400 L457.004063,400 C458.658673,400 460,401.33731 460,402.995937 L460,457.004063 C460,458.658673 458.66269,460 457.004063,460 L402.995937,460 C401.341327,460 400,458.66269 400,457.004063 L400,402.995937 C400,401.341327 401.33731,400 402.995937,400 Z" id="square-45"/></g><g fill="#FFFFFF" id="icon" transform="translate(182.000000, 150.000000)"><path d="M413.435897,412.230769 C412.869231,412.230769 412.315897,412.277436 411.769231,412.345769 L411.769231,415.714103 C412.312564,415.622436 412.865897,415.564103 413.435897,415.564103 C418.959231,415.564103 423.435897,420.042436 423.435897,425.564103 C423.435897,426.134103 423.377564,426.687436 423.285897,427.230769 L426.654231,427.230769 C426.722564,426.684103 426.769231,426.130769 426.769231,425.564103 C426.769231,418.200769 420.799231,412.230769 413.435897,412.230769 L413.435897,412.230769 Z M413.455621,405.307692 C412.885621,405.307692 412.32574,405.346479 411.769231,405.392012 L411.769231,408.764793 C412.324053,408.709142 412.885621,408.680473 413.455621,408.680473 C422.769556,408.680473 430.319527,416.23213 430.319527,425.544379 C430.319527,426.114379 430.289172,426.675947 430.233521,427.230769 L433.606302,427.230769 C433.653521,426.67426 433.692308,426.114379 433.692308,425.544379 C433.692308,414.368669 424.631331,405.307692 413.455621,405.307692 L413.455621,405.307692 Z M413.5,420.307692 C410.633846,420.307692 408.307692,422.632115 408.307692,425.5 C408.307692,428.367885 410.633846,430.692308 413.5,430.692308 C416.366154,430.692308 418.692308,428.367885 418.692308,425.5 C418.692308,422.632115 416.366154,420.307692 413.5,420.307692 L413.5,420.307692 Z" id="rss"/></g></g></g></svg>